<?xml version="1.0" standalone="no"?>
<!DOCTYPE svg PUBLIC "-//W3C//DTD SVG 20010904//EN"
 "http://www.w3.org/TR/2001/REC-SVG-20010904/DTD/svg10.dtd">
<svg version="1.0" xmlns="http://www.w3.org/2000/svg"
 width="500.000000pt" height="500.000000pt" viewBox="0 0 500.000000 500.000000"
 preserveAspectRatio="xMidYMid meet">

<g transform="translate(0.000000,500.000000) scale(0.100000,-0.100000)"
fill="#000000" stroke="none">
<path d="M3975 4521 l-87 -190 -42 -6 c-22 -4 -799 -124 -1726 -268 l-1685
-262 -108 -88 c-58 -49 -108 -91 -111 -95 -2 -4 13 -176 34 -382 21 -206 55
-542 74 -746 38 -387 48 -443 94 -492 33 -36 -8 -32 812 -73 613 -31 636 -33
653 -53 37 -42 125 -182 138 -219 12 -34 11 -39 -7 -57 -13 -14 -42 -23 -90
-29 -49 -6 -92 -20 -140 -45 -56 -28 -82 -36 -125 -36 -80 0 -437 -28 -569
-45 -145 -18 -210 -49 -314 -146 -136 -127 -300 -352 -333 -456 -21 -66 -10
-94 46 -123 72 -36 122 -24 212 51 54 45 104 52 134 19 18 -20 18 -21 -7 -48
-64 -68 -89 -167 -64 -254 51 -175 263 -245 408 -135 109 83 132 257 48 364
l-21 26 31 32 c17 17 27 34 24 38 -4 4 145 7 332 7 367 0 1332 15 1721 26
l241 7 25 -49 25 -49 -29 -35 c-31 -36 -59 -114 -59 -160 0 -51 30 -126 67
-169 119 -140 340 -115 425 48 44 84 37 198 -17 271 -32 43 -96 87 -147 101
-34 9 -38 13 -32 31 3 12 27 42 53 67 70 69 86 109 86 216 0 82 -3 97 -33 157
-47 96 -99 158 -211 249 l-97 81 25 50 c18 36 25 67 25 112 1 82 -36 149 -155
285 l-91 103 182 462 c174 438 385 982 445 1147 l28 76 71 -23 c52 -16 73 -19
77 -11 4 7 50 147 104 312 53 165 98 302 101 304 2 2 66 -8 141 -24 l138 -27
36 41 c79 88 62 200 -35 230 -42 14 -200 29 -376 37 -133 5 -202 14 -242 29
-11 5 -35 -38 -103 -184z m209 90 c43 -17 81 -32 84 -35 3 -3 0 -17 -6 -32 -8
-17 -18 -24 -30 -20 -29 8 -144 27 -147 24 -1 -2 -19 -55 -40 -118 -21 -63
-41 -119 -45 -123 -11 -12 -50 2 -50 17 0 7 21 57 46 112 25 54 57 122 69 151
13 29 28 53 32 53 4 0 43 -13 87 -29z m328 -1 c31 0 34 -6 14 -33 -12 -16 -18
-16 -77 -3 -35 7 -77 21 -94 31 -30 17 -29 17 49 11 43 -3 92 -6 108 -6z m195
-42 c29 -27 29 -50 1 -99 -14 -26 -29 -39 -42 -39 -12 0 -81 14 -154 29 l-133
29 -8 -22 c-4 -11 -50 -152 -102 -313 -93 -290 -94 -292 -119 -286 -75 18 -75
0 0 215 81 232 159 440 171 452 5 6 49 1 111 -12 57 -12 106 -22 109 -22 4 0
12 14 19 30 29 70 95 87 147 38z m-527 -89 c31 -7 50 -16 47 -22 -2 -7 -23
-64 -47 -128 l-44 -116 -43 31 c-24 16 -42 35 -40 41 2 5 19 54 37 108 18 53
35 97 36 97 2 0 26 -5 54 -11z m-332 -278 l-20 -68 -177 -25 c-97 -14 -177
-25 -178 -24 -1 0 5 31 14 67 l14 66 162 25 c89 14 172 26 183 27 l22 1 -20
-69z m159 29 c64 -32 97 -60 72 -60 -8 0 -53 -6 -101 -14 -49 -7 -88 -11 -88
-8 0 24 34 112 44 112 7 0 40 -14 73 -30z m-547 -31 c0 -24 -24 -105 -34 -115
-12 -12 -393 -70 -402 -61 -5 5 12 118 18 122 3 2 387 62 406 64 6 1 12 -4 12
-10z m-464 -106 c-11 -73 -15 -81 -44 -87 -76 -15 -334 -48 -339 -43 -3 4 -2
31 1 61 l7 54 67 11 c37 6 119 20 182 30 63 11 119 20 124 20 4 1 5 -20 2 -46z
m1104 17 c0 -14 -151 -433 -159 -442 -8 -9 -191 -31 -198 -24 -5 5 20 92 97
347 l30 95 102 16 c57 8 109 16 116 17 6 0 12 -4 12 -9z m-1524 -97 c-4 -31
-8 -59 -10 -61 -5 -5 -338 -53 -342 -49 -2 1 0 28 3 59 l6 57 66 10 c36 6 104
17 151 25 141 23 134 26 126 -41z m1165 -163 l-66 -219 -43 -7 c-23 -3 -45 -4
-48 -1 -3 2 23 102 58 220 66 229 63 224 129 226 l36 1 -66 -220z m-81 193 c0
-5 -28 -103 -61 -219 l-61 -211 -87 -11 c-47 -5 -87 -9 -89 -7 -3 2 66 312 88
396 10 35 11 36 77 46 88 13 133 15 133 6z m-245 -45 c-3 -13 -25 -108 -49
-212 -24 -104 -49 -192 -56 -196 -13 -8 -131 -22 -137 -17 -3 4 75 418 79 422
3 2 119 20 156 24 8 1 10 -7 7 -21z m-1223 -40 c-2 -29 -7 -56 -11 -59 -6 -7
-362 -62 -366 -57 -1 2 0 28 2 59 l5 56 162 25 c231 36 214 38 208 -24z m1018
26 c0 -7 -68 -370 -75 -400 -4 -18 -16 -22 -97 -31 -51 -6 -94 -10 -95 -9 -3
3 65 408 70 412 3 3 153 30 185 33 6 0 12 -2 12 -5z m-1432 -91 l-3 -58 -140
-21 c-77 -12 -157 -24 -178 -27 l-38 -5 3 56 3 56 165 27 c91 14 171 27 178
28 10 1 12 -14 10 -56z m1189 30 c-3 -16 -18 -106 -33 -201 -21 -124 -33 -176
-44 -181 -25 -13 -130 -22 -130 -11 0 21 61 395 66 399 5 6 79 18 118 20 26 1
28 -1 23 -26z m-217 -217 c-17 -105 -32 -191 -33 -192 -8 -7 -167 -14 -167 -8
0 24 49 386 52 389 2 3 42 10 88 17 75 12 85 11 88 -2 1 -8 -11 -100 -28 -204z
m-1377 74 c-4 -4 -64 -15 -133 -24 -69 -10 -137 -20 -152 -23 -28 -5 -28 -5
-28 49 l0 55 148 22 c81 13 152 24 157 25 12 3 20 -94 8 -104z m1187 103 c0
-28 -49 -385 -53 -390 -3 -2 -33 -7 -66 -10 -72 -7 -68 -32 -38 212 l22 180
40 6 c61 9 95 10 95 2z m-175 -45 c-3 -18 -12 -91 -20 -163 -8 -71 -18 -147
-21 -167 -6 -40 1 -37 -124 -53 l-46 -6 19 193 c11 106 22 195 24 197 3 4 127
27 161 30 9 1 11 -8 7 -31z m-209 -35 c-3 -21 -13 -108 -22 -193 -9 -85 -19
-158 -22 -161 -4 -4 -40 -10 -80 -14 -73 -7 -73 -7 -68 16 3 13 12 92 21 174
22 211 13 191 92 202 38 6 72 11 76 12 5 0 6 -16 3 -36z m-1156 -26 l0 -53
-157 -23 c-87 -12 -166 -25 -175 -27 -16 -5 -18 2 -18 49 l0 54 118 18 c64 10
135 21 157 25 76 15 75 15 75 -43z m967 -4 c-3 -21 -13 -105 -22 -188 -10 -82
-20 -153 -24 -157 -6 -6 -154 -28 -159 -23 -5 5 19 316 27 350 7 28 11 31 77
41 111 19 107 20 101 -23z m-217 -15 c-1 -50 -29 -350 -33 -354 -5 -6 -121
-23 -152 -24 -20 0 -20 4 -12 182 4 100 10 184 12 186 3 3 58 13 178 31 4 0 7
-9 7 -21z m-1136 -10 c3 -13 6 -35 6 -50 0 -32 4 -31 -160 -53 -63 -9 -126
-19 -140 -21 -21 -4 -17 2 25 41 28 26 61 54 74 63 19 13 114 35 177 41 7 1
14 -9 18 -21z m902 -190 c-4 -100 -8 -183 -9 -184 -1 -1 -30 -5 -65 -9 l-62
-7 6 173 c3 96 7 179 9 186 4 12 34 19 94 22 l34 1 -7 -182z m-160 110 c-3
-29 -6 -107 -6 -173 0 -66 -4 -125 -8 -132 -4 -6 -42 -15 -85 -20 l-77 -9 2
180 3 181 70 11 c116 19 109 22 101 -38z m-212 -155 c-4 -98 -8 -180 -10 -182
-2 -2 -26 -6 -54 -9 l-50 -5 2 179 3 179 40 6 c84 13 77 31 69 -168z m-144
-22 l0 -179 -62 -7 c-35 -3 -71 -9 -80 -11 -17 -5 -18 8 -18 174 l0 179 68 10
c37 5 73 11 80 11 9 2 12 -40 12 -177z m-200 -26 l0 -174 -35 -6 c-19 -3 -51
-7 -70 -10 l-35 -6 0 123 c0 68 -3 146 -6 174 l-7 52 64 10 c35 5 70 10 77 11
9 1 12 -40 12 -174z m3100 149 c0 -15 -174 -460 -184 -471 -9 -9 -156 -24
-156 -16 0 5 141 468 144 470 3 4 130 20 164 22 17 0 32 -2 32 -5z m-3278
-171 c2 -93 2 -170 0 -173 -2 -4 -114 -19 -119 -16 -5 4 -23 329 -18 334 6 7
72 19 107 21 l27 1 3 -167z m3018 140 c0 -5 -31 -109 -69 -233 l-69 -225 -42
-8 c-23 -5 -43 -7 -46 -5 -2 2 27 108 64 236 72 248 66 237 135 241 15 0 27
-2 27 -6z m-3205 -150 c3 -82 9 -155 11 -165 7 -22 0 -25 -86 -33 l-76 -7 -16
164 c-8 89 -15 164 -14 165 4 5 110 21 142 22 l32 1 7 -147z m3060 110 c-3
-16 -32 -118 -64 -228 l-58 -200 -67 -9 c-36 -5 -69 -6 -73 -2 -5 5 68 349 93
438 5 17 28 21 137 26 37 2 38 1 32 -25z m-209 -17 c-3 -14 -27 -114 -52 -223
-25 -109 -51 -201 -57 -205 -13 -8 -117 -11 -117 -3 0 16 82 430 86 435 3 2
29 7 57 11 92 11 90 12 83 -15z m-186 -11 c0 -18 -78 -426 -82 -430 -2 -1 -42
-5 -90 -9 l-87 -6 6 32 c3 18 19 116 37 218 l31 185 85 11 c47 6 88 12 93 13
4 0 7 -6 7 -14z m-258 -227 c-19 -117 -36 -214 -37 -216 -1 -1 -32 -5 -69 -9
-63 -6 -66 -5 -66 15 0 31 60 395 66 401 5 5 78 17 120 20 20 1 20 -1 -14
-211z m-152 177 c0 -32 -62 -400 -68 -406 -4 -4 -40 -9 -80 -11 l-73 -4 5 31
c3 16 15 110 27 207 l22 176 71 10 c39 5 77 10 84 11 6 0 12 -6 12 -14z m-229
-214 c-14 -110 -28 -202 -31 -204 -3 -2 -31 -8 -62 -11 -70 -9 -66 -30 -37
221 l22 182 31 4 c17 2 47 5 67 5 l35 2 -25 -199z m-169 -18 c-13 -109 -25
-199 -27 -201 -2 -2 -37 -6 -79 -9 -61 -5 -76 -3 -76 8 1 51 41 374 47 380 7
7 49 13 129 17 l30 2 -24 -197z m-182 155 c0 -32 -38 -369 -42 -373 -2 -1 -36
-5 -75 -7 l-73 -4 0 31 c1 47 37 346 44 352 4 5 67 15 134 22 6 0 12 -9 12
-21z m-210 -195 c-12 -103 -23 -189 -23 -190 -1 -1 -35 -5 -74 -8 l-73 -8 1
54 c0 30 6 115 12 189 l12 135 80 11 c44 5 82 9 83 8 2 -2 -6 -87 -18 -191z
m-185 120 c-3 -27 -10 -109 -16 -183 -6 -74 -13 -137 -16 -140 -2 -3 -39 -7
-80 -10 l-75 -5 7 180 c4 99 8 181 10 183 3 3 114 19 148 21 27 1 28 0 22 -46z
m-216 -162 c-4 -95 -9 -174 -11 -176 -2 -1 -30 -5 -62 -8 l-59 -6 6 176 c4 97
9 178 11 180 8 8 111 20 117 14 4 -3 3 -84 -2 -180z m-164 -57 l-7 -131 -51
-7 c-29 -3 -65 -6 -80 -6 l-28 0 3 169 c2 93 5 172 8 175 3 2 39 8 80 13 l75
8 3 -45 c2 -25 1 -104 -3 -176z m-195 119 c0 -43 -3 -122 -7 -175 l-6 -98 -49
0 -48 0 0 169 0 170 28 4 c15 2 39 5 55 6 l27 1 0 -77z m-142 -110 l-3 -168
-78 -5 -77 -5 0 167 0 167 38 4 c20 2 56 4 80 5 l42 2 -2 -167z m-198 -17 l0
-163 -62 -7 c-34 -3 -62 -5 -64 -4 -1 2 -3 75 -5 163 l-4 160 40 6 c22 3 52 7
68 8 l27 1 0 -164z m-170 -15 l0 -158 -37 -7 c-75 -12 -70 -18 -77 112 -4 64
-9 136 -12 159 l-5 42 38 4 c21 2 50 4 66 5 l27 2 0 -159z m-176 22 c4 -65 9
-134 11 -154 6 -43 -6 -49 -92 -49 l-52 0 -5 43 c-15 109 -27 250 -22 254 5 5
87 18 138 22 14 1 17 -16 22 -116z m3242 -10 c-4 -10 -39 -101 -78 -201 -77
-198 -80 -202 -154 -202 -21 0 -34 5 -34 13 0 6 27 98 59 202 l58 190 59 6
c32 3 67 6 78 7 13 2 16 -3 12 -15z m-242 -115 c-19 -62 -46 -152 -60 -200
l-27 -86 -38 -4 c-29 -3 -39 0 -39 11 0 8 20 84 46 170 71 246 59 221 109 221
l43 0 -34 -112z m-94 100 c0 -2 -26 -91 -58 -198 l-57 -195 -58 -3 c-42 -2
-57 0 -57 10 0 7 19 95 42 195 36 159 44 183 62 186 24 5 126 8 126 5z m-185
-20 c-2 -7 -23 -94 -45 -193 -23 -99 -44 -183 -47 -187 -2 -5 -26 -8 -54 -8
-27 0 -49 3 -49 8 0 4 16 90 35 192 19 102 35 186 35 187 0 2 60 9 102 11 18
1 26 -2 23 -10z m-165 -11 c0 -24 -68 -368 -74 -374 -3 -4 -42 -8 -87 -11 -76
-4 -81 -3 -76 14 3 11 18 96 33 189 15 94 29 172 31 175 3 3 37 8 76 11 40 3
78 6 85 7 6 1 12 -4 12 -11z m-214 -24 c-2 -10 -17 -95 -32 -190 l-28 -171
-35 -6 c-47 -8 -101 -8 -101 0 0 11 50 327 55 351 5 23 24 29 103 32 37 1 43
-2 38 -16z m-177 -5 c-1 -27 -56 -358 -60 -362 -2 -2 -34 -7 -71 -11 -54 -6
-68 -5 -68 6 1 8 11 93 23 189 l22 175 55 6 c92 10 100 9 99 -3z m-192 -30
c-3 -13 -13 -92 -23 -176 -10 -83 -20 -156 -23 -161 -3 -4 -32 -11 -63 -14
-69 -7 -66 -25 -38 198 11 88 20 163 20 168 0 4 30 7 66 7 64 0 66 -1 61 -22z
m-167 -4 c0 -20 -40 -347 -43 -350 -1 -1 -35 -4 -74 -6 -61 -3 -73 -1 -73 12
0 8 7 90 17 182 l17 167 30 4 c82 10 126 7 126 -9z m-195 -31 c-6 -41 -35
-310 -35 -323 0 -5 -36 -10 -80 -12 -49 -2 -80 1 -80 7 0 6 9 84 20 175 11 91
20 168 20 172 0 4 28 9 63 11 34 2 70 4 80 5 14 2 16 -4 12 -35z m-195 0 c0
-24 -30 -292 -36 -320 -4 -21 -10 -23 -74 -23 l-69 0 5 33 c4 34 24 279 24
302 0 17 20 22 93 24 48 1 57 -2 57 -16z m-198 -160 c-7 -93 -15 -174 -17
-180 -3 -9 -27 -13 -74 -13 l-70 0 5 143 c3 78 7 156 10 174 5 34 4 34 129 41
l30 2 -13 -167z m-189 -38 l-8 -160 -61 -3 -61 -3 4 163 c2 90 6 168 8 175 2
7 28 13 62 15 45 2 59 0 61 -12 1 -8 -1 -87 -5 -175z m-159 8 c-4 -93 -8 -169
-9 -171 -2 -2 -37 -6 -79 -9 l-76 -6 0 89 c0 49 3 126 7 171 7 93 3 89 105 92
l58 1 -6 -167z m-196 -7 c-2 -91 -5 -166 -8 -169 -3 -3 -24 -8 -47 -12 l-43
-7 0 170 c0 190 -5 177 73 181 l28 1 -3 -164z m-138 -16 l0 -170 -59 0 c-33 0
-66 -3 -75 -6 -14 -5 -16 13 -16 164 l0 171 48 4 c26 2 59 4 75 5 l27 2 0
-170z m-190 -15 l0 -165 -59 0 -58 0 -7 77 c-3 42 -6 116 -6 165 l0 88 65 0
65 0 0 -165z m-166 133 c3 -13 6 -87 6 -165 l0 -143 -50 0 -50 0 -1 53 c-1 28
-4 99 -8 157 -4 58 -6 108 -4 113 3 4 26 7 52 7 42 0 50 -3 55 -22z m-160 -85
c4 -54 9 -126 12 -159 5 -58 4 -62 -18 -68 -13 -3 -44 -6 -69 -6 l-46 0 -12
143 c-7 78 -15 150 -17 159 -5 17 14 22 108 26 l36 2 6 -97z m3046 -120 c0 -4
-35 -94 -77 -200 l-77 -193 -38 0 c-26 0 -36 4 -33 13 3 6 29 92 59 189 30 97
57 181 61 187 7 12 105 15 105 4z m-325 -140 c-20 -70 -45 -158 -57 -195 l-20
-68 -44 0 c-24 0 -44 3 -44 8 0 4 19 91 42 194 l42 187 56 3 c30 2 57 2 58 1
2 -1 -13 -59 -33 -130z m155 130 c0 -3 -26 -91 -57 -194 l-57 -187 -38 -4
c-21 -2 -38 -2 -38 0 0 3 25 90 55 194 30 104 55 191 55 194 0 2 18 4 40 4 22
0 40 -3 40 -7z m-281 -40 c-4 -21 -24 -107 -44 -191 -19 -84 -35 -155 -35
-158 0 -2 -20 -4 -45 -4 -25 0 -45 3 -45 7 0 7 57 312 65 350 5 21 23 28 86
32 26 1 27 0 18 -36z m-139 18 c0 -10 -56 -310 -65 -348 -5 -21 -11 -23 -83
-23 l-78 0 30 185 c30 180 31 184 56 188 51 8 140 7 140 -2z m-204 -18 c-2
-10 -17 -93 -32 -185 l-27 -168 -64 0 c-51 0 -63 3 -63 16 0 49 53 340 63 346
7 4 38 8 70 8 51 0 58 -2 53 -17z m-176 -13 c0 -10 -11 -89 -25 -174 -14 -85
-25 -157 -25 -160 0 -4 -30 -6 -66 -6 l-66 0 6 38 c3 20 13 96 22 167 8 72 17
136 19 143 3 8 26 12 70 12 58 0 65 -2 65 -20z m-355 -169 c-10 -86 -20 -159
-24 -162 -3 -4 -37 -9 -75 -12 l-69 -7 7 73 c3 39 11 118 17 174 l12 102 71 3
c39 2 73 -1 75 -6 2 -4 -5 -78 -14 -165z m179 147 c-3 -18 -13 -96 -22 -173
l-17 -140 -63 -3 -63 -3 5 43 c15 113 36 284 36 295 0 9 18 13 64 13 l65 0 -5
-32z m-354 -10 c0 -18 -7 -91 -15 -163 -8 -71 -15 -136 -15 -142 0 -9 -23 -13
-80 -13 l-80 0 1 28 c0 15 8 90 17 167 l17 140 70 6 c39 3 73 6 78 7 4 1 7
-13 7 -30z m-190 20 c0 -2 -9 -77 -20 -168 -11 -91 -20 -166 -20 -167 0 -2
-28 -3 -63 -3 l-63 0 13 148 c6 81 12 155 12 164 1 14 13 18 59 21 31 2 63 4
70 5 6 1 12 1 12 0z m-184 -105 c-4 -54 -9 -128 -13 -165 l-6 -68 -63 0 -64 0
0 68 c0 38 3 110 6 160 l7 91 41 4 c23 2 54 4 70 5 l29 2 -7 -97z m-176 4 c0
-46 -3 -118 -6 -160 l-7 -77 -60 0 -60 0 6 113 c4 61 7 131 7 154 0 46 5 49
83 52 l37 1 0 -83z m-161 -79 c-3 -84 -7 -154 -8 -155 0 -2 -35 -3 -77 -3
l-77 0 6 68 c4 37 7 104 7 149 0 93 -3 90 95 92 l60 1 -6 -152z m-324 -157
c-3 -3 -37 -7 -76 -9 l-69 -4 0 150 0 151 73 3 72 3 3 -144 c1 -79 0 -146 -3
-150z m135 149 l0 -150 -45 0 -45 0 0 150 0 150 45 0 45 0 0 -150z m-320 -10
l0 -151 -57 3 -58 3 -3 142 -3 142 53 4 c29 2 56 4 61 5 4 1 7 -66 7 -148z
m-156 48 c3 -50 6 -115 6 -145 l0 -53 -44 0 -43 0 -6 83 c-4 45 -7 108 -7 139
0 60 4 64 61 67 26 1 26 0 33 -91z m-150 10 c3 -40 8 -103 10 -140 l5 -68 -63
0 -63 0 -11 131 c-7 72 -9 135 -6 140 3 5 32 9 64 9 l58 0 6 -72z m2356 -230
c0 -7 -3 -30 -6 -50 l-7 -38 -56 0 c-87 0 -98 6 -93 43 6 45 26 57 99 57 44 0
63 -4 63 -12z m130 6 c0 -3 -5 -25 -11 -50 -11 -43 -12 -44 -54 -44 l-42 0 10
50 10 50 43 0 c24 0 44 -3 44 -6z m130 4 c0 -2 -6 -23 -14 -48 -13 -43 -15
-45 -56 -48 l-42 -3 7 43 c4 24 9 46 12 51 4 6 93 11 93 5z m105 -20 c-12 -40
-41 -73 -69 -76 -25 -3 -26 -1 -20 25 16 66 22 73 59 73 33 0 36 -2 30 -22z
m114 -30 c-51 -130 -75 -182 -85 -185 -7 -2 -20 16 -29 40 l-17 45 31 42 c17
24 31 47 31 51 0 4 4 19 10 33 8 21 16 26 45 26 l35 0 -21 -52z m-1709 12 l0
-31 -62 3 c-56 3 -63 5 -66 25 -3 20 1 22 60 26 35 2 64 4 66 5 1 1 2 -12 2
-28z m162 25 c3 -3 3 -17 0 -30 -4 -23 -8 -25 -63 -25 -55 0 -59 2 -59 23 0
13 3 27 7 30 8 8 107 9 115 2z m198 -30 l0 -35 -64 0 c-83 0 -96 6 -96 41 l0
29 80 0 80 0 0 -35z m190 23 c0 -7 -3 -23 -6 -35 -6 -21 -12 -23 -75 -23 l-69
0 0 35 0 35 75 0 c53 0 75 -4 75 -12z m154 -25 c-4 -21 -7 -39 -8 -40 -1 -1
-27 1 -59 4 -57 6 -57 6 -57 39 l0 34 65 0 66 0 -7 -37z m166 20 c-1 -55 -9
-63 -71 -63 l-59 0 0 40 0 40 65 0 c55 0 65 -3 65 -17z m166 -5 c-3 -13 -6
-31 -6 -40 0 -15 -10 -18 -65 -18 -62 0 -65 1 -65 24 0 50 8 56 77 56 63 0 65
-1 59 -22z m-2006 -3 c0 -11 -11 -15 -39 -15 -38 0 -57 10 -44 24 3 3 24 6 45
6 27 0 38 -4 38 -15z m150 0 c0 -12 -13 -15 -55 -15 -42 0 -55 3 -55 15 0 12
13 15 55 15 42 0 55 -3 55 -15z m190 -6 c0 -19 -4 -21 -31 -15 -17 3 -51 6
-75 6 -32 0 -44 4 -44 15 0 12 15 15 75 15 70 0 75 -1 75 -21z m128 4 c-2 -13
-15 -19 -46 -21 -37 -3 -42 -1 -42 17 0 18 6 21 46 21 38 0 45 -3 42 -17z
m182 -3 c0 -18 -7 -20 -75 -20 -68 0 -75 2 -75 20 0 18 7 20 75 20 68 0 75 -2
75 -20z m160 1 c0 -28 -15 -34 -70 -26 -40 6 -50 11 -50 26 0 17 8 19 60 19
53 0 60 -2 60 -19z m-950 -28 c0 -31 -8 -45 -40 -77 l-40 -39 -15 35 c-8 20
-17 54 -21 77 l-7 41 62 0 61 0 0 -37z m130 -53 c0 -16 -7 -20 -35 -20 -22 0
-35 5 -35 13 0 20 10 27 42 27 21 0 28 -5 28 -20z m138 14 c12 -4 22 -13 22
-20 0 -10 -16 -14 -60 -14 -53 0 -60 2 -60 20 0 16 7 20 38 20 20 0 47 -3 60
-6z m202 -24 c0 -18 -7 -20 -54 -20 -64 0 -86 7 -86 26 0 11 17 14 70 14 63 0
70 -2 70 -20z m130 0 c0 -17 -7 -20 -49 -20 -44 0 -49 2 -44 20 4 16 14 20 49
20 37 0 44 -3 44 -20z m156 10 c17 0 24 -6 24 -20 0 -17 -7 -20 -39 -20 -69 0
-101 10 -101 33 0 18 4 19 46 13 26 -3 57 -6 70 -6z m184 -20 c0 -18 -7 -20
-60 -20 -53 0 -60 2 -60 20 0 18 7 20 60 20 53 0 60 -2 60 -20z m168 -7 c3
-21 -1 -23 -40 -23 -63 0 -88 9 -88 32 0 17 6 19 63 16 56 -3 62 -5 65 -25z
m1864 -102 c75 -93 98 -139 98 -194 0 -41 -18 -102 -35 -119 -4 -4 -15 -2 -25
4 -14 9 -16 17 -9 42 15 50 10 107 -11 151 -20 40 -131 157 -158 166 -10 3
-10 12 3 43 l16 38 31 -28 c17 -16 57 -62 90 -103z m-1712 99 c0 -18 -7 -20
-60 -20 -53 0 -60 2 -60 20 0 18 7 20 60 20 53 0 60 -2 60 -20z m200 -5 c0
-23 -3 -25 -49 -25 -76 0 -111 10 -111 31 0 17 8 19 80 19 79 0 80 0 80 -25z
m128 19 c42 -6 52 -10 52 -25 0 -17 -8 -19 -70 -19 -68 0 -70 1 -70 25 0 28 4
29 88 19z m212 -29 c0 -24 -3 -25 -60 -25 -57 0 -60 1 -60 25 0 24 3 25 60 25
57 0 60 -1 60 -25z m158 3 c-3 -20 -10 -23 -60 -26 -56 -3 -58 -2 -58 23 0 24
2 25 61 25 57 0 60 -1 57 -22z m172 -14 c0 -23 -3 -24 -64 -24 -67 0 -81 8
-72 38 5 14 16 16 71 14 61 -4 65 -5 65 -28z m180 1 c0 -24 -2 -25 -70 -25
-68 0 -70 1 -70 25 0 24 2 25 70 25 68 0 70 -1 70 -25z m130 -5 c0 -29 -2 -30
-43 -30 -52 0 -56 3 -49 35 4 22 9 25 48 25 42 0 44 -1 44 -30z m110 11 c0
-27 -15 -41 -41 -41 -24 0 -29 4 -29 25 0 22 4 25 35 25 19 0 35 -4 35 -9z
m110 -10 c18 -35 12 -42 -32 -35 -52 8 -51 8 -43 33 9 28 60 29 75 2z m-2650
-6 c0 -8 -7 -15 -16 -15 -14 0 -14 3 -4 15 7 8 14 15 16 15 2 0 4 -7 4 -15z
m110 1 c0 -20 -12 -26 -38 -19 -33 8 -27 33 8 33 19 0 30 -5 30 -14z m170 -14
c0 -15 -10 -17 -70 -14 -38 2 -70 5 -70 7 0 24 15 30 75 27 53 -3 65 -7 65
-20z m160 -2 c0 -18 -7 -20 -60 -20 -53 0 -60 2 -60 20 0 18 7 20 60 20 53 0
60 -2 60 -20z m150 -10 c0 -17 -7 -20 -53 -20 -58 0 -68 4 -60 26 3 10 22 14
59 14 47 0 54 -2 54 -20z m170 -5 c0 -23 -3 -25 -49 -25 -62 0 -81 7 -81 31 0
17 8 19 65 19 63 0 65 -1 65 -25z m170 -10 c0 -28 -11 -30 -92 -19 -38 5 -45
9 -41 25 5 16 15 19 69 19 62 0 64 -1 64 -25z m170 -6 l0 -32 -46 7 c-26 3
-55 6 -65 6 -14 0 -19 7 -19 25 0 24 2 25 65 25 l65 0 0 -31z m140 -4 c0 -24
-3 -25 -55 -25 -52 0 -55 1 -55 25 0 24 3 25 55 25 52 0 55 -1 55 -25z m208
-7 l3 -28 -85 0 -86 0 0 30 0 31 83 -3 c81 -3 82 -3 85 -30z m172 -8 l0 -30
-70 0 -70 0 0 30 0 30 70 0 70 0 0 -30z m168 -7 l3 -33 -65 0 c-36 0 -67 3
-69 8 -3 4 -3 20 0 35 5 27 7 28 67 25 61 -3 61 -3 64 -35z m148 11 c-3 -9 -6
-24 -6 -35 0 -15 -7 -19 -32 -19 -60 0 -78 10 -78 41 0 29 0 29 61 29 52 0 60
-2 55 -16z m178 10 c10 -4 16 -18 16 -41 0 -36 0 -36 -37 -29 -21 3 -58 6 -83
6 l-46 0 4 35 4 35 63 0 c35 0 70 -3 79 -6z m172 -26 c-3 -13 -6 -29 -6 -35 0
-20 -106 -17 -114 3 -18 46 -9 54 60 54 64 0 66 -1 60 -22z m144 -18 l0 -40
-44 0 c-61 0 -75 7 -69 33 10 46 12 47 63 47 l50 0 0 -40z m510 -136 c8 -36 4
-84 -7 -84 -3 0 -54 39 -114 86 l-108 87 42 42 42 42 68 -67 c51 -50 71 -76
77 -106z m-433 131 c-6 -19 -16 -35 -24 -35 -8 0 -13 13 -13 35 0 30 3 35 24
35 23 0 24 -2 13 -35z m173 22 c0 -18 -41 -36 -96 -44 -45 -6 -48 -4 -38 35 6
20 12 22 70 22 47 0 64 -4 64 -13z m-1136 -189 c64 -136 72 -184 38 -221 -20
-21 -22 -68 -3 -67 3 1 49 7 101 14 81 12 97 12 109 0 8 -7 13 -15 10 -18 -2
-2 -247 -30 -543 -62 l-540 -59 -47 -190 c-26 -104 -47 -190 -46 -191 1 -1
211 -4 466 -7 l463 -5 -5 28 c-4 15 0 35 6 45 12 15 22 16 117 5 240 -28 369
25 357 148 -9 86 -91 210 -405 612 l-63 80 38 0 38 0 248 -344 c162 -226 247
-353 247 -369 0 -41 -41 -90 -99 -118 l-54 -27 26 -17 c48 -31 172 -38 457
-26 145 7 266 14 268 16 4 4 -216 507 -226 516 -4 3 -119 -5 -255 -18 l-249
-23 -18 22 c-12 15 -15 24 -7 26 7 1 225 18 485 36 260 19 475 36 478 39 3 2
-65 62 -150 133 -85 71 -155 132 -155 137 -2 22 46 -13 298 -214 287 -230 341
-283 392 -385 59 -118 46 -235 -34 -312 l-32 -31 -220 -10 c-309 -15 -1091
-29 -2040 -37 l-810 -7 -47 -43 c-26 -24 -63 -51 -82 -61 -34 -16 -38 -16 -72
1 -34 16 -36 19 -31 52 18 110 293 449 428 527 25 15 69 31 98 37 76 14 315
37 541 51 161 10 200 15 222 31 49 34 112 58 156 58 87 0 142 43 142 111 0 40
-39 123 -96 201 -19 26 -34 50 -34 53 0 3 17 5 39 5 l38 0 57 -122z m533 92
c122 -6 280 -10 350 -10 l129 0 128 -107 c71 -60 122 -109 115 -110 -8 -1
-183 -14 -389 -28 -206 -14 -400 -28 -430 -31 l-55 -5 -108 150 c-59 82 -107
152 -107 155 0 3 33 3 73 1 39 -3 172 -10 294 -15z m-352 -300 c-3 -5 -21 -10
-38 -10 l-32 0 0 58 0 58 38 -48 c21 -26 36 -52 32 -58z m836 -309 c49 -112
88 -206 85 -208 -2 -3 -122 -7 -266 -10 l-262 -6 31 48 c23 36 31 61 31 95 0
41 -8 56 -71 144 -39 54 -69 100 -66 102 5 5 376 42 405 40 20 -1 35 -28 113
-205z m-663 95 c28 -41 58 -98 67 -126 15 -46 16 -53 1 -75 -36 -55 -107 -68
-282 -53 -119 11 -134 10 -158 -5 -14 -10 -28 -28 -32 -42 l-6 -25 -347 0
-346 1 53 25 c89 44 139 132 129 230 l-5 53 66 7 c37 4 218 24 402 44 184 21
352 38 372 39 35 1 39 -3 86 -73z m-976 -64 c18 -69 -25 -151 -96 -183 -44
-20 -101 -25 -111 -10 -3 6 6 57 21 115 l26 105 47 4 c94 8 104 5 113 -31z
m2288 -440 c0 -13 -12 -23 -41 -31 -23 -7 -47 -15 -54 -18 -12 -4 -45 42 -45
62 0 3 32 5 70 5 61 0 70 -2 70 -18z m-2815 -32 c-3 -5 -15 -10 -26 -10 -10 0
-19 5 -19 10 0 6 12 10 26 10 14 0 23 -4 19 -10z m239 -11 l-21 -21 -39 21
-39 20 60 1 59 0 -20 -21z m-59 -63 c117 -63 138 -228 41 -322 -97 -92 -221
-81 -310 29 -41 51 -49 143 -17 204 55 108 178 147 286 89z m2757 3 c59 -30
108 -111 108 -178 0 -93 -71 -181 -161 -201 -71 -16 -127 -1 -181 48 -50 45
-68 85 -68 152 0 155 160 250 302 179z"/>
<path d="M3291 1549 c-68 -5 -126 -10 -128 -12 -3 -4 234 -566 242 -575 8 -9
381 21 393 30 30 25 52 88 52 147 0 129 -52 204 -241 350 -103 81 -78 76 -318
60z m302 -117 c6 -8 -4 -5 -23 7 -19 11 -45 21 -57 21 -18 0 -23 6 -23 26 l0
25 45 -32 c25 -18 51 -39 58 -47z m-250 35 c7 -22 4 -30 -25 -56 l-33 -30 -22
47 c-12 26 -22 50 -22 54 -1 6 62 16 83 13 6 -1 14 -13 19 -28z m87 13 c0 -11
-7 -20 -15 -20 -8 0 -15 2 -15 4 0 2 -3 11 -6 20 -4 12 0 16 15 16 14 0 21 -6
21 -20z m321 -193 c51 -71 62 -189 21 -235 -14 -17 -35 -21 -132 -26 l-115 -7
47 28 c130 76 155 237 54 352 -11 14 6 3 38 -25 33 -27 72 -66 87 -87z m-193
96 c48 -35 72 -81 72 -137 0 -88 -55 -157 -136 -172 -65 -12 -78 -2 -119 93
-72 168 -68 148 -38 184 15 17 41 38 58 45 42 20 129 13 163 -13z"/>
<path d="M3445 1331 c-76 -21 -99 -98 -46 -152 38 -37 88 -39 128 -5 69 59 5
181 -82 157z m39 -57 c20 -8 21 -48 1 -64 -17 -14 -51 -5 -59 16 -3 9 -1 24 4
35 11 20 27 23 54 13z"/>
<path d="M934 1315 c-61 -30 -187 -132 -179 -145 3 -5 -26 -56 -65 -113 -99
-146 -94 -193 16 -148 42 18 69 22 121 19 l68 -3 83 185 c77 172 81 186 65
197 -10 7 -23 17 -30 23 -17 14 -23 13 -79 -15z m56 -40 c0 -2 -29 -69 -64
-147 l-64 -142 -43 2 c-24 2 -59 -2 -78 -8 -19 -5 -36 -8 -37 -7 -2 2 30 52
70 111 59 87 86 117 137 152 58 41 79 51 79 39z"/>
<path d="M939 621 c-55 -56 -26 -159 50 -176 61 -13 131 43 131 105 0 29 -27
77 -49 90 -11 5 -38 10 -61 10 -33 0 -48 -6 -71 -29z m110 -35 c16 -19 10 -66
-10 -79 -26 -16 -68 0 -75 29 -12 47 55 87 85 50z"/>
<path d="M3699 621 c-55 -56 -26 -159 50 -176 82 -18 157 75 120 148 -19 38
-51 57 -97 57 -35 0 -49 -6 -73 -29z m110 -35 c16 -19 10 -66 -10 -79 -26 -16
-68 0 -75 29 -12 47 55 87 85 50z"/>
</g>
</svg>
